Coordinates
version=1
nRows=10
nColumns=63
inDegrees=yes

Units are S.I. units (second, meters, Newtons, ...)
If the header above contains a line with 'inDegrees', this indicates whether rotational values are in degrees (yes) or radians (no).

endheader
time	pelvis_tilt	pelvis_list	pelvis_rotation	pelvis_tx	pelvis_ty	pelvis_tz	hip_flexion_r	hip_adduction_r	hip_rotation_r	knee_angle_r	knee_angle_r_beta	ankle_angle_r	subtalar_angle_r	mtp_angle_r	hip_flexion_l	hip_adduction_l	hip_rotation_l	knee_angle_l	knee_angle_l_beta	ankle_angle_l	subtalar_angle_l	mtp_angle_l	L5_S1_Flex_Ext	L5_S1_Lat_Bending	L5_S1_axial_rotation	L4_L5_Flex_Ext	L4_L5_Lat_Bending	L4_L5_axial_rotation	L3_L4_Flex_Ext	L3_L4_Lat_Bending	L3_L4_axial_rotation	L2_L3_Flex_Ext	L2_L3_Lat_Bending	L2_L3_axial_rotation	L1_L2_Flex_Ext	L1_L2_Lat_Bending	L1_L2_axial_rotation	L1_T12_Flex_Ext	L1_T12_Lat_Bending	L1_T12_axial_rotation	Abs_r3	Abs_r2	Abs_r1	Abs_t1	Abs_t2	neck_flexion	neck_bending	neck_rotation	arm_flex_r	arm_add_r	arm_rot_r	elbow_flex_r	pro_sup_r	wrist_flex_r	wrist_dev_r	arm_flex_l	arm_add_l	arm_rot_l	elbow_flex_l	pro_sup_l	wrist_flex_l	wrist_dev_l
0.909091	3.557391	-4.221467	98.861512	0.062848	0.919105	0.513382	8.500001	2.579208	4.794611	1.879657	0.032806	22.598167	-14.863503	0.000000	7.369272	-4.166338	6.939273	3.360074	0.058644	25.660082	4.730988	0.000000	0.138143	0.208266	1.146927	0.256546	0.276994	1.218610	0.226955	0.506378	1.218610	0.157884	0.506378	1.003561	0.128280	0.424696	0.931878	0.078935	0.322604	0.860195	0.986743	2.355948	6.378864	0.000000	0.000000	27.639101	4.400630	-2.033139	0.402266	-5.927998	21.323147	68.259683	77.872281	-4.884227	14.708614	11.910866	-5.426579	45.898646	50.396390	75.687208	-8.948422	0.443292
0.927273	3.457374	-4.369803	98.577929	0.062784	0.920412	0.513702	8.687655	2.464041	4.728410	1.884101	0.032884	22.158237	-14.657421	0.000000	7.509097	-4.022727	6.716264	3.410859	0.059531	24.951107	4.447878	0.000000	0.150251	0.202544	1.190021	0.279031	0.269383	1.264397	0.246847	0.492464	1.264397	0.171722	0.492464	1.041268	0.139523	0.413027	0.966892	0.085853	0.313740	0.892515	1.073228	2.291213	6.618538	0.000000	0.000000	27.659604	4.442174	-2.031643	-1.676654	-7.110475	17.264218	77.652648	81.381679	-5.400394	16.471291	11.923205	-6.548183	36.853423	54.571282	81.461641	-8.792354	1.313284
0.945455	3.336249	-4.505810	98.279019	0.062871	0.921844	0.514009	8.832737	2.337698	4.772883	1.848461	0.032262	21.600364	-14.521881	0.000000	7.637028	-3.882979	6.201663	3.504992	0.061174	24.231864	4.466486	0.000000	0.159823	0.191007	1.238739	0.296807	0.254039	1.316160	0.262573	0.464414	1.316160	0.182661	0.464414	1.083897	0.148411	0.389501	1.006476	0.091323	0.295870	0.929054	1.141598	2.160708	6.889496	0.000000	0.000000	27.647288	4.546611	-2.097169	-3.371278	-8.247807	13.792080	87.319547	84.215203	-5.669277	18.416053	12.349986	-7.245756	28.643603	58.523756	86.018245	-8.689633	2.322440
0.963636	3.179342	-4.634492	97.962125	0.063151	0.923364	0.514287	8.933455	2.185651	4.937670	1.769683	0.030887	20.927935	-14.470188	0.000000	7.748735	-3.732351	5.403631	3.632349	0.063396	23.488048	4.757465	0.000000	0.167219	0.170451	1.294356	0.310542	0.226699	1.375254	0.274723	0.414434	1.375254	0.191114	0.414434	1.132562	0.155279	0.347583	1.051665	0.095549	0.264028	0.970767	1.194426	1.928172	7.198822	0.000000	0.000000	27.602010	4.754262	-2.261885	-4.411206	-9.147580	10.959653	96.790548	86.101773	-5.574837	20.296690	13.201647	-7.487973	22.052042	62.293958	88.948578	-8.716363	3.401039
0.981818	3.020391	-4.737891	97.720714	0.063486	0.924930	0.514533	8.972873	2.031314	5.113607	1.658498	0.028946	20.184257	-14.481200	0.000000	7.851516	-3.595409	4.480307	3.806243	0.066431	22.745226	5.266597	0.000000	0.171092	0.145890	1.332851	0.317735	0.194034	1.416155	0.281087	0.354718	1.416155	0.195541	0.354718	1.166245	0.158876	0.297500	1.082942	0.097762	0.225984	0.999639	1.222095	1.650341	7.412920	0.000000	0.000000	27.521566	5.024770	-2.486904	-4.497620	-9.716742	9.040990	105.539102	87.228775	-5.349696	21.692709	14.500852	-7.305428	17.490482	65.957005	89.892503	-8.999551	4.347470
1.000000	2.831928	-4.807033	97.519868	0.063888	0.926535	0.514767	8.941662	1.847528	5.333619	1.518242	0.026498	19.394714	-14.544124	0.000000	7.921424	-3.444990	3.412326	4.011229	0.070009	21.983446	5.966459	0.000000	0.170091	0.114972	1.366468	0.315875	0.152912	1.451872	0.279442	0.279542	1.451872	0.194397	0.279542	1.195659	0.157946	0.234450	1.110255	0.097190	0.178091	1.024851	1.214940	1.300582	7.599883	0.000000	0.000000	27.377796	5.373105	-2.769256	-3.416238	-9.869453	8.037163	113.005760	87.219229	-5.003325	22.271398	16.327630	-6.685022	15.624927	69.475478	88.755537	-9.469322	4.924724
1.018182	2.623466	-4.842380	97.411838	0.064324	0.928092	0.514946	8.836162	1.639222	5.552913	1.348582	0.023537	18.623669	-14.654948	0.000000	7.955010	-3.284324	2.352715	4.219474	0.073644	21.223554	6.736335	0.000000	0.165755	0.080421	1.390093	0.307824	0.106960	1.476974	0.272320	0.195536	1.476974	0.189442	0.195536	1.216331	0.153920	0.163995	1.129451	0.094713	0.124572	1.042570	1.183975	0.909740	7.731281	0.000000	0.000000	27.156010	5.719258	-3.044620	-1.334315	-9.540483	6.460469	118.928792	87.915493	-4.565379	22.230485	18.401747	-6.069821	13.021159	73.546843	88.549922	-10.343228	5.432728
1.036364	2.410022	-4.815751	97.416015	0.064655	0.929645	0.515124	8.633781	1.416736	5.693106	1.160744	0.020259	17.886735	-14.746160	0.000000	7.934295	-3.122857	1.313515	4.434490	0.077396	20.491176	7.587920	0.000000	0.156429	0.046563	1.402813	0.290505	0.061929	1.490489	0.256998	0.113214	1.490489	0.178783	0.113214	1.227461	0.145260	0.094952	1.139785	0.089384	0.072127	1.052110	1.117359	0.526734	7.802024	0.000000	0.000000	26.812626	6.027372	-3.304647	1.756714	-8.804273	4.791294	123.104675	88.251794	-4.083106	21.444477	20.673873	-5.326170	11.117652	77.946061	88.206530	-11.354287	5.533869
1.054545	2.191105	-4.717097	97.544883	0.064806	0.931200	0.515315	8.324074	1.176993	5.692886	0.967104	0.016879	17.211195	-14.777839	0.000000	7.846063	-2.955956	0.325018	4.641346	0.081007	19.803921	8.538814	0.000000	0.142204	0.014759	1.406361	0.264088	0.019629	1.494259	0.233627	0.035885	1.494259	0.162525	0.035885	1.230566	0.132051	0.030097	1.142668	0.081256	0.022862	1.054771	1.015751	0.166957	7.821759	0.000000	0.000000	26.322792	6.268838	-3.567795	5.630071	-7.754214	2.977492	125.633820	88.239087	-3.690959	20.028480	23.013010	-4.513238	10.023711	82.711294	87.612518	-12.376236	5.130753
1.072727	1.965368	-4.550152	97.803048	0.064736	0.932728	0.515502	7.910408	0.918232	5.501199	0.787369	0.013742	16.609350	-14.709584	0.000000	7.684095	-2.775145	-0.475116	4.820500	0.084134	19.145479	9.432750	0.000000	0.124323	-0.015158	1.397350	0.230880	-0.020161	1.484684	0.204250	-0.036856	1.484684	0.142089	-0.036856	1.222681	0.115446	-0.030911	1.135347	0.071038	-0.023480	1.048013	0.888026	-0.171474	7.771642	0.000000	0.000000	25.705270	6.461048	-3.840810	10.026727	-6.472731	1.082596	126.761943	88.014284	-3.485275	18.175492	25.257610	-3.695560	9.543752	87.844892	87.134133	-13.301683	4.301610
